<svg id="Burger_King_Logo" xmlns="http://www.w3.org/2000/svg" width="35" height="35" viewBox="0 0 35 35">
  <path id="Path_40" data-name="Path 40" d="M0,0H34.609V35H0Z" fill="none" fill-rule="evenodd"/>
  <path id="Path_41" data-name="Path 41" d="M19.947,2.459a17.278,17.278,0,0,0-6.685,1.325A17.072,17.072,0,0,0,7.809,7.4,16.747,16.747,0,0,0,4.137,12.77a16.629,16.629,0,0,0,0,13.146,16.7,16.7,0,0,0,3.672,5.372,17.072,17.072,0,0,0,5.454,3.62,17.432,17.432,0,0,0,13.369,0,17.077,17.077,0,0,0,5.454-3.62,16.7,16.7,0,0,0,3.672-5.372,16.629,16.629,0,0,0,0-13.146A16.751,16.751,0,0,0,32.085,7.4a17.072,17.072,0,0,0-5.454-3.62,17.253,17.253,0,0,0-6.685-1.325Z" transform="translate(-2.111 -1.875)" fill="#fff" fill-rule="evenodd"/>
  <path id="Path_42" data-name="Path 42" d="M50.728,15.762a.363.363,0,0,0,.319-.192.337.337,0,0,0-.08-.363c-.811-1.354-2.643-2.187-5.511-2.487a13.752,13.752,0,0,0-3.853.171A12.612,12.612,0,0,0,37.822,14.1q-3.976,2.105-4.57,5.586a.515.515,0,0,0,.029.456c.08.093.21.107.391.05q5.313-1.753,8.227-2.522,4.6-1.186,8.829-1.909Z" transform="translate(-25.201 -9.649)" fill="#febe10" fill-rule="evenodd"/>
  <path id="Path_43" data-name="Path 43" d="M27.546,6.613a15.961,15.961,0,0,0-4.874-.763A16.772,16.772,0,0,0,15.951,7.2,16.158,16.158,0,0,0,7.391,15.9,15.238,15.238,0,0,0,6.2,21.8a16.2,16.2,0,0,0,4.679,11.415,15.853,15.853,0,0,0,5.157,3.506,16.2,16.2,0,0,0,6.439,1.3,15.971,15.971,0,0,0,10.3-3.52,16.719,16.719,0,0,0,3.049-3.192,14.864,14.864,0,0,0,1.76-3.085l-2.745-1.468a14.894,14.894,0,0,1-4.823,6.085,12.675,12.675,0,0,1-7.395,2.423,15.844,15.844,0,0,1-5.75-.948,13.638,13.638,0,0,1-4.628-2.807l-1.586.67V29.763a13.1,13.1,0,0,1-2.013-3.869,14.808,14.808,0,0,1-.717-4.631A15.178,15.178,0,0,1,9.1,15.334a14.35,14.35,0,0,1,3.259-4.788,14.926,14.926,0,0,1,4.983-3.221,17.134,17.134,0,0,1,6.337-1.169,18.1,18.1,0,0,1,3.867.456Z" transform="translate(-4.706 -4.461)" fill="#0061a9" fill-rule="evenodd"/>
  <path id="Path_44" data-name="Path 44" d="M106.577,53.144a.95.95,0,0,0-.528-.485,4.391,4.391,0,0,0-1.282-.264,5.323,5.323,0,0,0-1.42.1,4.729,4.729,0,0,0-2.339,1.154,4.5,4.5,0,0,0-1.4,3.5,3.178,3.178,0,0,0,1.239,2.758,3.579,3.579,0,0,0,2.578.591,4.417,4.417,0,0,0,2.68-1.133,1.982,1.982,0,0,0,.558-1.475c.015-.427.015-1.332,0-2.7l-3.426.734v.784c.007.57.275.805.819.7l.435-.107.007.641a.245.245,0,0,1-.08.193,1.222,1.222,0,0,1-.732.335,1.314,1.314,0,0,1-1.245-.342,2.033,2.033,0,0,1-.413-1.375,2.443,2.443,0,0,1,.507-1.532A2.022,2.022,0,0,1,103.7,54.5a3.406,3.406,0,0,1,1.217-.078l.71.135a.867.867,0,0,0,.7-.171,1.019,1.019,0,0,0,.333-.57,1.078,1.078,0,0,0-.073-.677Z" transform="translate(-75.568 -39.948)" fill="#ed1c2e" fill-rule="evenodd"/>
  <path id="Path_45" data-name="Path 45" d="M74.316,58.416a1.736,1.736,0,0,0-.3,1.09L74,61.886a34.094,34.094,0,0,0-2.267-2.58,1.152,1.152,0,0,0-1.275-.192l-1.173.349v7.945l1.137-.385a1.743,1.743,0,0,0,.9-.606,1.81,1.81,0,0,0,.254-1.033l-.015-2.743L74,65.412a1.278,1.278,0,0,0,1.354.314,1.154,1.154,0,0,0,.608-.413,1.2,1.2,0,0,0,.268-.748V57.682c-.42.085-.8.178-1.159.278a1.445,1.445,0,0,0-.76.456Z" transform="translate(-52.57 -43.988)" fill="#ed1c2e" fill-rule="evenodd"/>
  <path id="Path_46" data-name="Path 46" d="M56.807,66.363a1.926,1.926,0,0,0-.905.605,2.136,2.136,0,0,0-.319,1.276l-.007,6.6,1.318-.463a2,2,0,0,0,.963-.641,1.809,1.809,0,0,0,.283-1.083l.007-6.719c-.5.143-.942.285-1.34.428Z" transform="translate(-42.165 -50.281)" fill="#ed1c2e" fill-rule="evenodd"/>
  <path id="Path_47" data-name="Path 47" d="M28.5,73.266l-2.441,1-.014,7.917,1.724-.713a.881.881,0,0,0,.543-.406,1.332,1.332,0,0,0,.181-.776V77.769l1.927,2.017a1.4,1.4,0,0,0,.847.413,1.353,1.353,0,0,0,1.043-.307,1.171,1.171,0,0,0,.456-.9,1.121,1.121,0,0,0-.275-.819l-1.76-1.731,1.8-2.8a1,1,0,0,0,.13-.826.975.975,0,0,0-.579-.634,1.168,1.168,0,0,0-.912-.05,1.135,1.135,0,0,0-.587.456l-2.079,3.477-.007-2.8Z" transform="translate(-19.759 -54.955)" fill="#ed1c2e" fill-rule="evenodd"/>
  <path id="Path_48" data-name="Path 48" d="M64.3,88.941a.436.436,0,0,0-.449-.057q-3.628.834-8.329,2.287-5.052,1.561-8.184,2.886l-.21.1a.287.287,0,0,0-.116.142.347.347,0,0,0,.109.414,3.587,3.587,0,0,0,1.2.833,10.147,10.147,0,0,0,2.1.7,13.059,13.059,0,0,0,5.845-.064,11.592,11.592,0,0,0,6.453-3.719,9.151,9.151,0,0,0,1.238-1.938,5.888,5.888,0,0,0,.413-1.112.5.5,0,0,0-.073-.47Z" transform="translate(-35.644 -67.758)" fill="#febe10" fill-rule="evenodd"/>
  <path id="Path_49" data-name="Path 49" d="M24.108,52.138a1.8,1.8,0,0,0-1.478.021c-.3.107-.905.342-1.811.705l.007,5.772,2.158-.905a3.983,3.983,0,0,0,1.325-.805,1.771,1.771,0,0,0,.528-1.318,1.031,1.031,0,0,0-.3-.727,1.149,1.149,0,0,0-.674-.356,1.787,1.787,0,0,0,.768-1.439,1,1,0,0,0-.528-.948Zm-1.521,2.28-.275.114V53.314a.787.787,0,0,1,.6-.107.362.362,0,0,1,.224.4.87.87,0,0,1-.55.812Zm.428.919a.472.472,0,0,1,.253.463.89.89,0,0,1-.608.877l-.333.15v-1.4a.779.779,0,0,1,.688-.085Z" transform="translate(-15.796 -39.647)" fill="#ed1c2e" fill-rule="evenodd"/>
  <path id="Path_50" data-name="Path 50" d="M41.97,44.957a.494.494,0,0,0-.224-.477.645.645,0,0,0-.521-.021c-.225.064-.464.142-.724.242v3.584c-.014.534-.181.834-.514.919a.386.386,0,0,1-.384-.085.6.6,0,0,1-.123-.413l-.008-2.936a.518.518,0,0,0-.217-.485.635.635,0,0,0-.528-.021l-.739.264v3.556a1.419,1.419,0,0,0,.565,1.29,1.743,1.743,0,0,0,1.535.128,2.718,2.718,0,0,0,1.354-.791,2.659,2.659,0,0,0,.528-1.739V44.957Z" transform="translate(-28.82 -33.87)" fill="#ed1c2e" fill-rule="evenodd"/>
  <path id="Path_51" data-name="Path 51" d="M94.575,32.98v-.805l1.253-.257a.54.54,0,0,0,.449-.606V30.7c-1.036.171-2.093.385-3.165.627l-.022,5.266c1.173-.278,2.071-.477,2.716-.613a.63.63,0,0,0,.529-.684v-.613l-1.76.378.007-1.019,1.1-.228a.53.53,0,0,0,.456-.57l-.007-.584-1.557.321Z" transform="translate(-70.627 -23.411)" fill="#ed1c2e" fill-rule="evenodd"/>
  <path id="Path_52" data-name="Path 52" d="M56.176,46.44l.876-.292a.82.82,0,0,0,.6-.784l.007-1.411,1.26,1.29a.827.827,0,0,0,.645.242.812.812,0,0,0,.485-.207.706.706,0,0,0,.239-.549.753.753,0,0,0-.225-.534l-.956-.9a2.21,2.21,0,0,0,.927-1.717,1.082,1.082,0,0,0-.529-1,1.812,1.812,0,0,0-1.383-.142c-.478.107-1.13.307-1.948.584V46.44Zm1.477-3.3v-1.5c.565-.207.855-.086.862.363a1.28,1.28,0,0,1-.862,1.14Z" transform="translate(-42.62 -30.786)" fill="#ed1c2e" fill-rule="evenodd"/>
  <path id="Path_53" data-name="Path 53" d="M111.16,29.271a1.751,1.751,0,0,0-1.333-.292l-1.941.321v5.187l.8-.15a.712.712,0,0,0,.63-.741V32.328l1.239,1.432a.786.786,0,0,0,1.006.128.684.684,0,0,0,.145-1.055l-.956-1.054a1.737,1.737,0,0,0,.9-1.475,1.2,1.2,0,0,0-.493-1.033Zm-1.84,2.252-.007-1.4c.558-.114.847.022.854.413,0,.449-.282.777-.847.99Z" transform="translate(-81.853 -22.082)" fill="#ed1c2e" fill-rule="evenodd"/>
  <path id="Path_54" data-name="Path 54" d="M77.442,35.633a.616.616,0,0,0-.326-.577,2.152,2.152,0,0,0-1.057-.185,3.093,3.093,0,0,0-2.325,1.012,3.275,3.275,0,0,0-.782,2.252,2.342,2.342,0,0,0,.775,1.924,2.178,2.178,0,0,0,1.847.385,3.086,3.086,0,0,0,1.5-.663,1.138,1.138,0,0,0,.4-.912V36.823l-2.195.485v.6a.4.4,0,0,0,.145.328.393.393,0,0,0,.348.078l.319-.071.007.591c0,.121-.073.214-.225.285a1.056,1.056,0,0,1-.507.1c-.543-.007-.811-.4-.826-1.176a2.144,2.144,0,0,1,.333-1.19,1.437,1.437,0,0,1,.819-.57,2.554,2.554,0,0,1,.854-.014.832.832,0,0,0,.652-.107.63.63,0,0,0,.247-.527Z" transform="translate(-55.348 -26.592)" fill="#ed1c2e" fill-rule="evenodd"/>
  <path id="Path_55" data-name="Path 55" d="M39.321,23.471a.33.33,0,0,0,.123-.242,7.478,7.478,0,0,1,1.412-2.7A7.991,7.991,0,0,1,42.992,18.6a7.745,7.745,0,0,0-2.94,2.287,7.6,7.6,0,0,0-.847,1.29,3.117,3.117,0,0,0-.347,1.019.373.373,0,0,0,.072.242.281.281,0,0,0,.2.092.251.251,0,0,0,.2-.064Z" transform="translate(-29.48 -14.187)" fill="#fff" fill-rule="evenodd"/>
  <path id="Path_56" data-name="Path 56" d="M80.835,16.133a.977.977,0,0,0-.464-.727,4.783,4.783,0,0,0-1.224-.648,9.1,9.1,0,0,0-1.709-.42,8.614,8.614,0,0,0-1.9-.071,8.052,8.052,0,0,1,3.042.727,2.931,2.931,0,0,1,.826.556.838.838,0,0,1,.29.549.772.772,0,0,1-.254.584,1.38,1.38,0,0,1-.63.385l.854-.2a4.177,4.177,0,0,0,.638-.178c.355-.121.529-.306.536-.556Z" transform="translate(-57.306 -10.861)" fill="#fff" fill-rule="evenodd"/>
  <path id="Path_57" data-name="Path 57" d="M97.3,94.847a.464.464,0,0,0,.029-.4.331.331,0,0,0-.232-.214.42.42,0,0,0-.333.036.608.608,0,0,0-.275.363,8.6,8.6,0,0,1-1.434,2.4A9.149,9.149,0,0,1,92.431,99.2,9.385,9.385,0,0,0,95.2,97.555,8.156,8.156,0,0,0,97.3,94.847Z" transform="translate(-70.127 -71.847)" fill="#fff" fill-rule="evenodd"/>
  <path id="Path_58" data-name="Path 58" d="M132.859,94.147h-.543v.086h.21v.413h.138v-.413h.2Z" transform="translate(-100.387 -71.795)" fill="#ed1c2e" fill-rule="evenodd"/>
  <path id="Path_59" data-name="Path 59" d="M135.006,94.24l.123.406h.138l.123-.406v.406h.138v-.5h-.2l-.123.385-.131-.385h-.2v.5h.138Z" transform="translate(-102.323 -71.795)" fill="#ed1c2e" fill-rule="evenodd"/>
</svg>
