<svg id="cancel_1_" data-name="cancel (1)" xmlns="http://www.w3.org/2000/svg" width="20" height="20" viewBox="0 0 20 20">
  <g id="Group_11" data-name="Group 11">
    <path id="Path_69" data-name="Path 69" d="M17.071,2.929A10,10,0,1,0,2.929,17.071,10,10,0,1,0,17.071,2.929Zm-.8,13.338A8.863,8.863,0,0,1,3.733,3.733,8.863,8.863,0,1,1,16.267,16.267Z" fill="#ff040d"/>
    <path id="Path_70" data-name="Path 70" d="M137.905,129.092a.567.567,0,0,0-.8,0l-3.6,3.6-3.6-3.6a.568.568,0,0,0-.8.8l3.6,3.6-3.6,3.6a.57.57,0,0,0,.4.972.554.554,0,0,0,.4-.168l3.6-3.6,3.6,3.6a.572.572,0,0,0,.4.168.548.548,0,0,0,.4-.168.566.566,0,0,0,0-.8l-3.594-3.6,3.6-3.6A.567.567,0,0,0,137.905,129.092Z" transform="translate(-123.499 -123.499)" fill="#ff040d"/>
  </g>
</svg>
