<svg xmlns="http://www.w3.org/2000/svg" width="27" height="24.546" viewBox="0 0 27 24.546">
  <g id="chat" transform="translate(-0.019)">
    <g id="Group_2" data-name="Group 2" transform="translate(0.019)">
      <path id="Path_32" data-name="Path 32" d="M23.057,3.6A14.112,14.112,0,0,0,13.512,0,14.112,14.112,0,0,0,3.967,3.6a11.477,11.477,0,0,0-.851,16.5,4.882,4.882,0,0,1-2.164,2.18,1.12,1.12,0,0,0-.691,1.2,1.212,1.212,0,0,0,1.056.965,7.661,7.661,0,0,0,1.068.073,8.626,8.626,0,0,0,4.75-1.432,14.506,14.506,0,0,0,6.371,1.458,14.219,14.219,0,0,0,9.556-3.6,11.652,11.652,0,0,0,3.956-8.677A11.658,11.658,0,0,0,23.057,3.6Zm-1.09,16.362A12.866,12.866,0,0,1,7.455,21.65a.826.826,0,0,0-.936.109.254.254,0,0,0-.063.042,7.03,7.03,0,0,1-4.07,1.318H2.38a6.966,6.966,0,0,0,2.318-2.8.656.656,0,0,0,.04-.451.7.7,0,0,0-.188-.394,10.177,10.177,0,0,1,.5-14.889,12.829,12.829,0,0,1,16.909,0A10.188,10.188,0,0,1,21.967,19.959Z" transform="translate(-0.019)" fill="#fff"/>
      <ellipse id="Ellipse_2" data-name="Ellipse 2" cx="0.948" cy="0.861" rx="0.948" ry="0.861" transform="translate(12.546 11.412)" fill="#fff"/>
      <ellipse id="Ellipse_3" data-name="Ellipse 3" cx="0.948" cy="0.861" rx="0.948" ry="0.861" transform="translate(17.432 11.412)" fill="#fff"/>
      <ellipse id="Ellipse_4" data-name="Ellipse 4" cx="0.948" cy="0.861" rx="0.948" ry="0.861" transform="translate(7.659 11.412)" fill="#fff"/>
    </g>
  </g>
</svg>
