<svg xmlns="http://www.w3.org/2000/svg" width="27" height="28" viewBox="0 0 27 28">
  <g id="notepad" transform="translate(-42.667)">
    <g id="Group_4" data-name="Group 4" transform="translate(42.667)">
      <g id="Group_3" data-name="Group 3" transform="translate(0)">
        <path id="Path_34" data-name="Path 34" d="M66.719,2.333h-3.8V1.777A1.932,1.932,0,0,0,60.861,0H51.473a1.932,1.932,0,0,0-2.056,1.777v.556h-3.8a2.77,2.77,0,0,0-2.948,2.548V25.452A2.77,2.77,0,0,0,45.615,28h21.1a2.77,2.77,0,0,0,2.948-2.548V4.881A2.77,2.77,0,0,0,66.719,2.333Zm-14.6,0h8.1V4.667h-8.1Zm14.85,23.119a.233.233,0,0,1-.248.215h-21.1a.233.233,0,0,1-.248-.215V4.881a.233.233,0,0,1,.248-.215h3.8v.556A1.932,1.932,0,0,0,51.473,7h9.388a1.932,1.932,0,0,0,2.056-1.777V4.667h3.8a.233.233,0,0,1,.248.215Z" transform="translate(-42.667)" fill="#fff"/>
        <path id="Path_35" data-name="Path 35" d="M161.484,192h-10.8a1.179,1.179,0,1,0,0,2.333h10.8a1.179,1.179,0,1,0,0-2.333Z" transform="translate(-142.584 -181.5)" fill="#fff"/>
        <path id="Path_36" data-name="Path 36" d="M161.484,277.333h-10.8a1.179,1.179,0,1,0,0,2.333h10.8a1.179,1.179,0,1,0,0-2.333Z" transform="translate(-142.584 -262.166)" fill="#fff"/>
        <path id="Path_37" data-name="Path 37" d="M161.484,362.667h-10.8a1.179,1.179,0,1,0,0,2.333h10.8a1.179,1.179,0,1,0,0-2.333Z" transform="translate(-142.584 -342.834)" fill="#fff"/>
      </g>
    </g>
  </g>
</svg>
