<svg xmlns="http://www.w3.org/2000/svg" width="20" height="19" viewBox="0 0 20 19">
  <g id="passage-of-time-process" transform="translate(0 -1.775)">
    <g id="Layer_1_65_" transform="translate(0 1.775)">
      <g id="Group_10" data-name="Group 10">
        <path id="Path_66" data-name="Path 66" d="M19.96,9.8a.42.42,0,0,0-.381-.249H18.333A9.33,9.33,0,0,0,9.245,1.775,9.386,9.386,0,0,0,0,11.275a9.386,9.386,0,0,0,9.245,9.5,9.236,9.236,0,0,0,8.007-4.747.877.877,0,0,0-.307-1.18.827.827,0,0,0-1.148.315,7.559,7.559,0,0,1-6.552,3.886,7.679,7.679,0,0,1-7.564-7.772A7.679,7.679,0,0,1,9.245,3.5a7.62,7.62,0,0,1,7.369,6.045H15.378A.421.421,0,0,0,15,9.8a.44.44,0,0,0,.058.46l2.1,2.591a.413.413,0,0,0,.646,0l2.1-2.591A.441.441,0,0,0,19.96,9.8Z" transform="translate(0 -1.775)" fill="#d7df60"/>
        <path id="Path_67" data-name="Path 67" d="M19.741,6.713a.852.852,0,0,0-.84.864v5.24a1.521,1.521,0,0,0-.63,1.237,1.494,1.494,0,0,0,1.471,1.512,1.42,1.42,0,0,0,.62-.146l2.923,1.734a.814.814,0,0,0,.42.116.836.836,0,0,0,.728-.432.876.876,0,0,0-.308-1.179L21.2,13.922a1.513,1.513,0,0,0-.617-1.1V7.577A.854.854,0,0,0,19.741,6.713Zm0,7.989a.648.648,0,1,1,.63-.647A.64.64,0,0,1,19.741,14.7Z" transform="translate(-10.496 -4.554)" fill="#d7df60"/>
      </g>
    </g>
  </g>
</svg>
