<svg xmlns="http://www.w3.org/2000/svg" width="20" height="18" viewBox="0 0 20 18">
  <g id="passage-of-time" transform="translate(0 -1.775)">
    <g id="Layer_1_65_" transform="translate(0 1.775)">
      <g id="Group_10" data-name="Group 10">
        <path id="Path_66" data-name="Path 66" d="M19.96,9.375a.422.422,0,0,0-.381-.236H18.333A9.193,9.193,0,0,0,9.245,1.775a9.136,9.136,0,0,0-9.245,9,9.135,9.135,0,0,0,9.245,9,9.329,9.329,0,0,0,8.007-4.5.806.806,0,0,0-.307-1.118.851.851,0,0,0-1.148.3,7.634,7.634,0,0,1-6.552,3.682,7.474,7.474,0,0,1-7.564-7.363A7.475,7.475,0,0,1,9.245,3.412a7.53,7.53,0,0,1,7.369,5.727H15.378A.422.422,0,0,0,15,9.375a.4.4,0,0,0,.058.435l2.1,2.454a.428.428,0,0,0,.646,0L19.9,9.81A.4.4,0,0,0,19.96,9.375Z" transform="translate(0 -1.775)"/>
        <path id="Path_67" data-name="Path 67" d="M19.741,6.713a.829.829,0,0,0-.84.818V12.5a1.419,1.419,0,0,0-.63,1.172A1.454,1.454,0,0,0,19.741,15.1a1.485,1.485,0,0,0,.62-.138L23.285,16.6a.853.853,0,0,0,1.148-.3.806.806,0,0,0-.308-1.117L21.2,13.543a1.418,1.418,0,0,0-.617-1.046V7.531A.831.831,0,0,0,19.741,6.713Zm0,7.568a.614.614,0,1,1,.63-.613A.623.623,0,0,1,19.741,14.281Z" transform="translate(-10.496 -4.667)"/>
      </g>
    </g>
  </g>
</svg>
