<svg id="Russian_Railways_Logo" xmlns="http://www.w3.org/2000/svg" width="34" height="19.728" viewBox="0 0 34 19.728">
  <path id="Path_71" data-name="Path 71" d="M182.71,1.749v.719h4.721a1.264,1.264,0,0,1,1.1.411,2.4,2.4,0,0,1,.315,1.439V10.48a2.4,2.4,0,0,1-.315,1.438,1.263,1.263,0,0,1-1.1.411h-2.281c-.393,0-.906,0-1.1-.565a1.781,1.781,0,0,1,.316-1.49l3.068-5.343H182.71L180.82,8.22a3.237,3.237,0,0,0-.59,1.644,3.173,3.173,0,0,0,.59,1.645l.472.821a6,6,0,0,0,1.575,2.055,4.262,4.262,0,0,0,2.4.409h2.044a4.733,4.733,0,0,0,4.134-1.54,7.861,7.861,0,0,0,1.18-4.624V6.165a7.859,7.859,0,0,0-1.18-4.623A4.731,4.731,0,0,0,187.312,0l-3.265,0a1.125,1.125,0,0,0-1.024.412,2.118,2.118,0,0,0-.313,1.337" transform="translate(-158.625)" fill="#da4216"/>
  <path id="Path_72" data-name="Path 72" d="M112.028,31.518h4.723l-5.669,9.862h-4.722Z" transform="translate(-93.611 -26.586)" fill="#da4216"/>
  <path id="Path_73" data-name="Path 73" d="M0,33.265a2.108,2.108,0,0,1,.315-1.337,1.125,1.125,0,0,1,1.023-.411H9.249a4.248,4.248,0,0,1,2.4.411,6.027,6.027,0,0,1,1.572,2.056l.473.821a3.165,3.165,0,0,1,.592,1.644,3.25,3.25,0,0,1-.592,1.645L11.806,41.38H7.084l3.069-5.341a1.779,1.779,0,0,0,.315-1.49c-.2-.564-.707-.564-1.1-.564h-3.7V46.314H1.889V33.985H0v-.719" transform="translate(0 -26.586)" fill="#da4216"/>
</svg>
