<svg id="ruble" xmlns="http://www.w3.org/2000/svg" width="27" height="28" viewBox="0 0 27 28">
  <path id="Path_30" data-name="Path 30" d="M167.389,128.533h-4.236a.806.806,0,0,0-.791.82v6.209h-.9a.821.821,0,0,0,0,1.641h.9v1.874h-.9a.821.821,0,0,0,0,1.641h.9v1.816a.792.792,0,1,0,1.582,0v-1.816h3.445a.821.821,0,0,0,0-1.641h-3.445V137.2h3.445a4.338,4.338,0,0,0,0-8.67Zm0,7.029h-3.445v-5.389h3.445a2.7,2.7,0,0,1,0,5.389Z" transform="translate(-152.194 -121.504)" fill="#fff"/>
  <path id="Path_31" data-name="Path 31" d="M13.5,0A13.772,13.772,0,0,0,0,14,13.772,13.772,0,0,0,13.5,28,13.772,13.772,0,0,0,27,14,13.772,13.772,0,0,0,13.5,0Zm0,26.359A12.158,12.158,0,0,1,1.582,14,12.158,12.158,0,0,1,13.5,1.641,12.158,12.158,0,0,1,25.418,14,12.158,12.158,0,0,1,13.5,26.359Z" fill="#fff"/>
</svg>
