<svg id="transaction-dark" xmlns="http://www.w3.org/2000/svg" width="35" height="35" viewBox="0 0 35 35">
  <path id="Path_60" data-name="Path 60" d="M35,17.5A17.5,17.5,0,1,1,17.5,0,17.5,17.5,0,0,1,35,17.5Zm0,0" fill="#565454"/>
  <g id="Group_9" data-name="Group 9" transform="translate(5.48 6.412)">
    <path id="Path_61" data-name="Path 61" d="M101.322,93.8H83.06a2.892,2.892,0,0,0-2.889,2.889v16.4a2.892,2.892,0,0,0,2.889,2.889h18.262a2.892,2.892,0,0,0,2.889-2.889v-16.4A2.892,2.892,0,0,0,101.322,93.8ZM83.06,95.852h18.262a.839.839,0,0,1,.838.838v2.7H82.222v-2.7a.839.839,0,0,1,.838-.838Zm18.262,18.074H83.06a.839.839,0,0,1-.838-.838V101.442h19.937v11.646a.839.839,0,0,1-.838.838Zm0,0" transform="translate(-80.171 -93.801)" fill="#fff"/>
    <path id="Path_62" data-name="Path 62" d="M131.106,136.991a.932.932,0,1,1-.932-.932A.932.932,0,0,1,131.106,136.991Zm0,0" transform="translate(-125.888 -133.17)" fill="#fff"/>
    <path id="Path_63" data-name="Path 63" d="M178.813,136.991a.932.932,0,1,1-.932-.932A.932.932,0,0,1,178.813,136.991Zm0,0" transform="translate(-170.334 -133.17)" fill="#fff"/>
    <path id="Path_64" data-name="Path 64" d="M245.5,222.31l.858.858h-4.675v2.051h4.675l-.858.858,1.45,1.45,3.334-3.334-3.334-3.334Zm0,0" transform="translate(-230.646 -212.174)" fill="#fff"/>
    <path id="Path_65" data-name="Path 65" d="M149.276,276.829l-1.45-1.45-3.334,3.334,3.334,3.334,1.45-1.45-.858-.858H153v-2.051h-4.582Zm0,0" transform="translate(-140.096 -262.966)" fill="#fff"/>
  </g>
</svg>
